<svg version="1.1" xmlns="http://www.w3.org/2000/svg" xmlns:xlink="http://www.w3.org/1999/xlink" width="500" height="500"><g data-paper-data="{&quot;description&quot;:&quot;Logo for LightWay\n=================\n\nThis logo was generated by MarkMaker at http://emblemmatic.org/markmaker/ and may be composed of elements designed by others.\n\nThe font is Alegreya Sans SC Bold Italic designed by Juan Pablo del Peral and released under the OFL license via Google Fonts: https://www.google.com/fonts/specimen/Alegreya%20Sans%20SC. The font includes this copyright statement: Copyright (c) 2013, Natanael Gama (www.ndiscovered.com . info(at)ndiscovered.com), with Reserved Font Name Exo. This Font Software is licensed under the SIL Open Font License, Version 1.1.\n\nMarkMaker uses semantic data from the Princeton University WordNet database http://wordnet.princeton.edu and font descriptions from Google Fonts https://www.google.com/fonts.&quot;}" fill="#344b2f" fill-rule="nonzero" stroke="none" stroke-width="1" stroke-linecap="butt" stroke-linejoin="miter" stroke-miterlimit="10" stroke-dasharray="" stroke-dashoffset="0" font-family="none" font-weight="none" font-size="none" text-anchor="none" style="mix-blend-mode: normal"><g data-paper-data="{&quot;elementType&quot;:&quot;logo&quot;}"><g data-paper-data="{&quot;elementType&quot;:&quot;text&quot;}"><g data-paper-data="{&quot;baseline&quot;:64.3,&quot;elementType&quot;:&quot;row&quot;}"><g data-paper-data="{&quot;baselineProportion&quot;:0.9877112135176652,&quot;fontSize&quot;:100,&quot;baseline&quot;:64.3,&quot;elementType&quot;:&quot;word&quot;}"><path d="M88.63961,286.29608h-38.63961l3.54387,-21.94913l5.6016,-51.55759h15.31866l-7.08774,50.18577l-1.02887,10.86025h24.00686l0.68591,1.14318z" data-paper-data="{&quot;elementType&quot;:&quot;letter&quot;,&quot;baseline&quot;:64.3,&quot;baselineProportion&quot;:1,&quot;fontSize&quot;:100}"></path><path d="M103.84396,286.29608h-13.94684l2.74364,-17.14776l4.3441,-40.58302h14.17548l-5.71592,39.32552z" data-paper-data="{&quot;elementType&quot;:&quot;letter&quot;,&quot;baseline&quot;:50.5,&quot;baselineProportion&quot;:1,&quot;fontSize&quot;:100}"></path><path d="M146.71335,227.87939c6.2494,0 12.27017,1.02887 18.0623,3.0866l-5.25865,12.91798h-1.14318c-2.97228,-1.75288 -5.52539,-2.97228 -7.65933,-3.65819c-2.13394,-0.68591 -4.53463,-1.02887 -7.20206,-1.02887c-5.79213,0 -10.11718,1.77193 -12.97514,5.3158c-2.85796,3.54387 -4.28694,9.24074 -4.28694,17.0906c0,5.25865 0.91455,9.0121 2.74364,11.26036c1.82909,2.24826 5.18243,3.37239 10.06002,3.37239c2.36258,0 4.87758,-0.49538 7.54501,-1.48614l0.45727,-3.77251l0.91455,-9.14547l12.91798,-0.80023l-1.14318,7.65933l-1.82909,14.74707c-7.62123,2.515 -14.36601,3.77251 -20.23435,3.77251c-8.53577,0 -15.01381,-2.17205 -19.43412,-6.51615c-4.42031,-4.3441 -6.63047,-10.78403 -6.63047,-19.31981c0,-10.36487 3.06754,-18.53863 9.20263,-24.52129c6.13509,-5.98266 14.76612,-8.97399 25.89311,-8.97399z" data-paper-data="{&quot;elementType&quot;:&quot;letter&quot;,&quot;baseline&quot;:51.1,&quot;baselineProportion&quot;:0.9845857418111754,&quot;fontSize&quot;:100}"></path><path d="M215.99028,267.89083l-1.71478,18.40526h-13.94684l2.74364,-17.14776l0.57159,-5.83024l-24.12118,0.11432l-0.68591,4.45842l-1.60046,18.40526h-13.94684l2.74364,-17.14776l4.3441,-40.58302h14.17548l-3.31523,23.09231l12.11775,0.11432l11.54616,-0.11432l2.515,-23.09231h14.17548z" data-paper-data="{&quot;elementType&quot;:&quot;letter&quot;,&quot;baseline&quot;:50.5,&quot;baselineProportion&quot;:1,&quot;fontSize&quot;:100}"></path><path d="M266.51901,240.45442l-11.31752,-0.68591h-3.20091l-3.88682,28.12232l-1.71478,18.40526h-13.94684l2.74364,-17.14776l3.31523,-29.37982h-3.31523l-11.66047,0.68591l-0.80023,-1.02887l2.28637,-10.86025h43.09803l0.57159,1.14318z" data-paper-data="{&quot;elementType&quot;:&quot;letter&quot;,&quot;baseline&quot;:50.5,&quot;baselineProportion&quot;:1,&quot;fontSize&quot;:100}"></path><path d="M316.59045,286.29608l-6.17319,-35.66733h-1.02887l-15.09003,35.66733h-16.11889l-10.74593,-73.50672h14.74707v8.91683l6.63047,48.92827h0.91455l17.03344,-40.01143l-2.85796,-17.83367h15.43298l0.34296,10.40297l6.97342,47.44213h1.02887l20.34867,-48.12804l2.97228,-9.71706h14.06116l-32.69506,73.50672z" data-paper-data="{&quot;elementType&quot;:&quot;letter&quot;,&quot;baseline&quot;:64.3,&quot;baselineProportion&quot;:1,&quot;fontSize&quot;:100}"></path><path d="M387.01057,286.29608l-0.34296,-8.1166l-0.57159,-3.65819l-11.54616,-0.22864l-10.06002,0.22864l-1.37182,2.85796l-2.85796,8.91683h-13.60389l27.09346,-57.73078h16.46185l10.86025,57.73078h-14.06116M380.49443,241.36896h-0.91455l-10.28865,22.52072l7.43069,0.11432l7.54501,-0.11432z" data-paper-data="{&quot;elementType&quot;:&quot;letter&quot;,&quot;baseline&quot;:50.5,&quot;baselineProportion&quot;:1,&quot;fontSize&quot;:100}"></path><path d="M423.59245,270.52015l-1.37182,15.77594h-13.94684l2.62932,-15.77594l0.34296,-2.97228l-14.40412,-38.98257h14.86139l0.80023,4.22978l6.8591,20.46299h0.91455l12.91798,-19.8914l2.40069,-4.80137h14.40412l-25.95027,39.09688z" data-paper-data="{&quot;elementType&quot;:&quot;letter&quot;,&quot;baseline&quot;:50.5,&quot;baselineProportion&quot;:1,&quot;fontSize&quot;:100}"></path></g></g></g></g></g></svg>